HIERARCHY
ROOT Hips
{
	OFFSET 0.000000 0.000000 0.000000 
	CHANNELS 6 Xposition Yposition Zposition Zrotation Yrotation Xrotation
	JOINT LeftUpLeg
	{
		OFFSET 1.363060 -1.794630 0.839290 
		CHANNELS 3 Zrotation Yrotation Xrotation
		JOINT LeftLeg
		{
			OFFSET 2.448110 -6.726130 0.000000 
			CHANNELS 3 Zrotation Yrotation Xrotation
			JOINT LeftFoot
			{
				OFFSET 2.562200 -7.039590 0.000000 
				CHANNELS 3 Zrotation Yrotation Xrotation
				JOINT LeftToeBase
				{
					OFFSET 0.157640 -0.433110 2.322550 
					CHANNELS 3 Zrotation Yrotation Xrotation
					End Site
					{
						OFFSET 0.000000 0.000000 0.000000 
					}
				}
			}
		}
	}
	JOINT RightUpLeg
	{
		OFFSET -1.305520 -1.794630 0.839290 
		CHANNELS 3 Zrotation Yrotation Xrotation
		JOINT RightLeg
		{
			OFFSET -2.542530 -6.985550 0.000000 
			CHANNELS 3 Zrotation Yrotation Xrotation
			JOINT RightFoot
			{
				OFFSET -2.568260 -7.056230 0.000000 
				CHANNELS 3 Zrotation Yrotation Xrotation
				JOINT RightToeBase
				{
					OFFSET -0.164730 -0.452590 2.363150 
					CHANNELS 3 Zrotation Yrotation Xrotation
					End Site
					{
						OFFSET 0.000000 0.000000 0.000000 
					}
				}
			}
		}
	}
	JOINT Spine
	{
		OFFSET 0.028270 2.035590 -0.193380 
		CHANNELS 3 Zrotation Yrotation Xrotation
		JOINT Spine1
		{
			OFFSET 0.056720 2.048850 -0.042750 
			CHANNELS 3 Zrotation Yrotation Xrotation
			JOINT Neck1
			{
				OFFSET -0.054170 1.746240 0.172020 
				CHANNELS 3 Zrotation Yrotation Xrotation
				JOINT Head
				{
					OFFSET 0.104070 1.761360 -0.123970 
					CHANNELS 3 Zrotation Yrotation Xrotation
					End Site
					{
						OFFSET 0.000000 0.000000 0.000000 
					}
				}
			}
			JOINT LeftArm
			{
				OFFSET 3.362410 1.200890 -0.311210 
				CHANNELS 3 Zrotation Yrotation Xrotation
				JOINT LeftForeArm
				{
					OFFSET 4.983000 -0.000000 -0.000000 
					CHANNELS 3 Zrotation Yrotation Xrotation
					JOINT LeftHand
					{
						OFFSET 3.483560 -0.000000 -0.000000 
						CHANNELS 3 Zrotation Yrotation Xrotation
						JOINT LeftHandIndex1
						{
							OFFSET 0.715260 -0.000000 -0.000000 
							CHANNELS 3 Zrotation Yrotation Xrotation
							End Site
							{
								OFFSET 0.000000 0.000000 0.000000 
							}
						}
					}
				}
			}
			JOINT RightArm
			{
				OFFSET -3.136600 1.374050 -0.404650 
				CHANNELS 3 Zrotation Yrotation Xrotation
				JOINT RightForeArm
				{
					OFFSET -5.241900 -0.000000 -0.000000 
					CHANNELS 3 Zrotation Yrotation Xrotation
					JOINT RightHand
					{
						OFFSET -3.444170 -0.000000 -0.000000 
						CHANNELS 3 Zrotation Yrotation Xrotation
						JOINT RightHandIndex1
						{
							OFFSET -0.622530 -0.000000 -0.000000 
							CHANNELS 3 Zrotation Yrotation Xrotation
							End Site
							{
								OFFSET 0.000000 0.000000 0.000000 
							}
						}
					}
				}
			}
		}
	}
}
MOTION
Frames: 18
Frame Time: 0.041667
0.855321 17.909551 -5.332077 4.167771 -39.236659 4.296072 -15.278331 -6.595938 -20.083136 0.182297 7.980496 24.139168 -0.924192 5.128064 2.044417 0.263000 -3.299300 -9.113300 10.808495 15.044089 -10.124142 -1.490300 -9.043043 28.240942 -1.750892 6.490611 -6.124549 -0.092100 -1.957400 5.388000 0.883702 0.428714 -0.808364 4.579802 0.687261 -0.568481 5.569032 -4.446716 3.563768 3.712300 -2.331200 8.158100 -77.797591 -0.270197 16.417616 11.762168 -22.869389 -2.880839 -0.332811 -1.580004 12.428615 -7.125000 0.000000 0.000000 70.624577 -1.843974 23.505173 -18.313236 26.076348 -5.243157 0.476134 -0.509936 13.305534 7.125000 0.000000 0.000000 
0.870562 17.910156 -5.298365 4.072560 -39.576891 4.422000 -15.316567 -6.513673 -20.162060 0.207605 8.029032 24.282746 -0.930145 5.148178 1.856689 0.290700 -3.467300 -9.582700 10.729741 15.173580 -10.156300 -1.480209 -9.026938 28.187858 -1.766909 6.611736 -6.011679 -0.080700 -1.832900 5.044200 0.870234 0.490951 -0.847067 4.582673 0.723595 -0.627377 5.426028 -4.536397 2.766139 3.674000 -2.377600 7.869500 -77.657310 -0.143596 16.605322 11.866478 -23.041975 -2.932160 -0.320633 -1.588129 12.070240 -7.125000 0.000000 0.000000 70.354377 -1.680619 23.800032 -18.616228 26.423960 -5.393164 0.486092 -0.478538 12.700922 7.125000 0.000000 0.000000 
0.888124 17.909551 -5.267378 4.010899 -39.774813 4.468772 -15.359833 -6.582035 -20.130743 0.227538 8.063426 24.390844 -0.956908 5.247616 1.644761 0.270200 -3.343900 -9.237800 10.659519 15.228508 -10.134870 -1.475333 -9.018976 28.161054 -1.773660 6.664128 -5.951471 -0.064200 -1.634900 4.497800 0.879603 0.502066 -0.903027 4.617035 0.733935 -0.766205 5.502384 -4.666877 1.963016 3.748500 -2.436800 7.581500 -77.637291 0.010412 16.664195 11.924385 -23.139678 -2.963123 -0.309293 -1.590179 11.939305 -7.125000 0.000000 0.000000 69.957138 -1.646260 24.208789 -19.076610 26.956922 -5.627531 0.492218 -0.429671 11.944490 7.125000 0.000000 0.000000 
0.903668 17.908541 -5.235382 4.028178 -40.021824 4.430978 -15.488103 -6.478688 -20.124153 0.248458 8.099516 24.507852 -0.967114 5.283791 1.452345 0.243500 -3.175700 -8.768400 10.528942 15.194828 -10.131915 -1.471127 -9.014764 28.138671 -1.783110 6.751027 -5.813608 -0.042300 -1.327800 3.651400 0.878060 0.513335 -0.893301 4.665981 0.735060 -0.756329 5.533904 -4.751893 0.907055 3.818000 -2.472100 7.202500 -77.670314 0.041179 16.398164 11.980209 -23.226318 -2.992402 -0.303138 -1.589259 12.083656 -7.125000 0.000000 0.000000 69.489248 -1.456949 24.707026 -19.543995 27.492991 -5.873829 0.502686 -0.410437 11.204855 7.125000 0.000000 0.000000 
0.917698 17.907027 -5.197330 4.071528 -40.246854 4.366413 -15.668206 -6.373015 -20.070426 0.267124 8.127208 24.612607 -0.966240 5.274429 1.240556 0.235900 -3.125700 -8.628900 10.357860 15.006438 -10.175623 -1.470991 -9.018820 28.134957 -1.815282 6.997303 -5.556983 -0.037900 -1.256900 3.455800 0.843958 0.496210 -0.868566 4.656331 0.720314 -0.680382 5.472044 -4.888057 -0.192844 3.830700 -2.531800 6.805100 -77.610276 0.077801 16.176629 12.034453 -23.315453 -3.021829 -0.299632 -1.588095 12.127063 -7.125000 0.000000 0.000000 69.150102 -1.141651 24.931528 -20.026762 28.028855 -6.131844 0.519061 -0.398838 10.773892 7.125000 0.000000 0.000000 
0.932637 17.907128 -5.160186 4.145472 -40.530398 4.269434 -15.884709 -6.159834 -20.041706 0.290110 8.162284 24.738182 -0.970109 5.285959 1.019842 0.235300 -3.121700 -8.617600 10.165124 14.873509 -10.198663 -1.471990 -9.025671 28.137520 -1.837901 7.171492 -5.354035 -0.021200 -0.939700 2.582900 0.760246 0.520513 -0.838579 4.556510 0.727909 -0.623604 5.352483 -5.032124 -1.185220 3.800700 -2.594100 6.464000 -77.354527 0.073868 16.402602 12.070780 -23.385643 -3.039351 -0.305125 -1.594063 11.764163 -7.125000 0.000000 0.000000 68.819936 -0.802980 25.005350 -20.587222 28.649780 -6.441793 0.503297 -0.394715 10.565737 7.125000 0.000000 0.000000 
0.947979 17.907229 -5.127786 4.184706 -40.823493 4.240651 -16.052833 -5.975217 -20.073244 0.313242 8.200589 24.861334 -0.992768 5.375054 0.829048 0.236800 -3.131700 -8.645600 10.007790 14.860750 -10.251095 -1.475333 -9.033890 28.152421 -1.858691 7.340748 -5.162047 -0.017400 -0.851000 2.338800 0.744186 0.463425 -0.833891 4.597144 0.695261 -0.591179 5.285377 -5.096523 -2.293045 3.819600 -2.615400 6.085500 -77.217739 0.075063 16.450275 12.140773 -23.501004 -3.070537 -0.298024 -1.612059 11.308520 -7.125000 0.000000 0.000000 68.223044 -0.389662 25.405281 -21.179201 29.297635 -6.774819 0.499843 -0.389106 10.198918 7.125000 0.000000 0.000000 
0.959485 17.909753 -5.104571 4.008413 -41.875717 4.646951 -16.022102 -5.451412 -20.480435 0.333126 8.248263 24.953120 -1.097709 5.803128 0.591028 0.219800 -3.018100 -8.329000 9.888276 15.454180 -10.589915 -1.477045 -9.036234 28.164554 -1.893122 7.683012 -4.787506 -0.021100 -0.938400 2.579400 0.837798 0.680195 -0.930663 4.873829 0.808109 -0.597156 5.182486 -5.143922 -3.436810 3.848600 -2.633100 5.693300 -77.337959 0.248225 16.052125 12.287073 -23.727192 -3.142464 -0.281219 -1.621876 11.180274 -7.125000 0.000000 0.000000 67.411714 0.113169 25.917345 -21.789773 29.947314 -7.120722 0.508044 -0.365707 9.786080 7.125000 0.000000 0.000000 
0.973011 17.906523 -5.069647 4.025645 -42.271940 4.675807 -16.164758 -5.336422 -20.509745 0.353943 8.281075 25.057552 -1.148030 6.000417 0.374016 0.192900 -2.828700 -7.802100 9.727823 15.591818 -10.664118 -1.486486 -9.053914 28.207205 -1.916849 7.829253 -4.721427 -0.013400 -0.747700 2.054700 0.817079 0.667899 -0.937297 4.905326 0.799106 -0.534049 5.053084 -5.267177 -4.510741 3.832600 -2.682900 5.335200 -77.216393 0.387928 16.036377 12.408108 -23.925413 -3.207064 -0.276458 -1.618524 10.993928 -7.125000 0.000000 0.000000 66.717157 0.637856 26.419885 -22.507749 30.693629 -7.533867 0.529573 -0.341500 9.410019 7.125000 0.000000 0.000000 
0.988958 17.902081 -5.033210 4.132879 -42.390162 4.496634 -16.374866 -5.380156 -20.359049 0.376587 8.309504 25.174794 -1.169813 6.080663 0.170053 0.202100 -2.895000 -7.986500 9.564147 15.411419 -10.659889 -1.500650 -9.082217 28.276238 -1.925357 7.870149 -4.675898 -0.002700 -0.333800 0.917100 0.761151 0.531489 -0.898531 4.870862 0.722300 -0.469220 5.072606 -5.377019 -5.507857 3.863900 -2.716400 5.027200 -76.968000 0.425953 16.062062 12.471086 -24.038906 -3.247522 -0.267708 -1.614125 10.740200 -7.125000 0.000000 0.000000 66.039462 1.172308 26.721275 -23.340411 31.547089 -8.030132 0.518149 -0.324349 9.068881 7.125000 0.000000 0.000000 
1.004199 17.902586 -4.997580 4.105505 -42.645188 4.446444 -16.478066 -5.296935 -20.289517 0.396914 8.337455 25.275053 -1.197931 6.190134 -0.016297 0.202000 -2.894100 -7.984000 9.504734 15.388612 -10.668256 -1.511642 -9.103642 28.336412 -1.914933 7.834010 -4.601003 -0.000100 -0.060300 0.165700 0.718689 0.465681 -0.899517 4.816760 0.687387 -0.448548 4.977321 -5.543062 -6.682935 3.851300 -2.781600 4.636600 -76.708372 0.548610 16.179828 12.559299 -24.191645 -3.295416 -0.266717 -1.616536 10.318754 -7.125000 0.000000 0.000000 65.417118 1.722147 26.784466 -24.233290 32.431717 -8.574801 0.523585 -0.314416 8.774944 7.125000 0.000000 0.000000 
1.021257 17.900971 -4.963262 4.102727 -42.963012 4.425171 -16.589299 -5.268001 -20.233377 0.411040 8.356384 25.347846 -1.226656 6.302785 -0.252693 0.169800 -2.654500 -7.318400 9.408512 15.692183 -10.607918 -1.523225 -9.123155 28.393984 -1.897228 7.701926 -4.684912 -0.001000 0.199300 -0.547600 0.661602 0.426824 -0.942432 4.747790 0.672771 -0.506373 4.872557 -5.740870 -7.868479 3.838100 -2.863300 4.241900 -76.445265 0.784827 16.374888 12.652097 -24.356005 -3.346387 -0.270160 -1.616143 9.909439 -7.125000 0.000000 0.000000 64.785982 2.324600 26.706123 -25.157976 33.324109 -9.157451 0.525684 -0.337568 8.727537 7.125000 0.000000 0.000000 
1.037003 17.901779 -4.927531 4.009939 -43.315317 4.472009 -16.645570 -5.249057 -20.164749 0.423867 8.373499 25.405922 -1.289677 6.550726 -0.504898 0.146200 -2.463700 -6.788900 9.369177 15.966265 -10.547381 -1.533508 -9.139302 28.447055 -1.878583 7.585080 -4.736580 -0.011600 0.694400 -1.908400 0.588853 0.439573 -0.961202 4.580538 0.677029 -0.500212 5.041121 -6.006566 -9.020967 3.929100 -2.968400 3.889200 -76.154815 0.929703 16.484270 12.773866 -24.555299 -3.410451 -0.249221 -1.633930 9.431850 -7.125000 0.000000 0.000000 64.053523 2.910427 26.733177 -26.242810 34.339451 -9.853058 0.521943 -0.322421 8.641763 7.125000 0.000000 0.000000 
1.051538 17.905614 -4.892406 4.002180 -43.621821 4.432806 -16.766715 -5.209980 -20.058766 0.434185 8.383348 25.453521 -1.332999 6.721377 -0.750848 0.117000 -2.205000 -6.072400 9.233795 15.994952 -10.555525 -1.547343 -9.162939 28.514196 -1.905661 7.807787 -4.526188 -0.014200 0.768700 -2.112600 0.496496 0.423872 -0.936406 4.446082 0.659467 -0.409723 5.257466 -6.254960 -10.251370 4.021000 -3.062200 3.515500 -75.702836 0.925775 16.833854 12.885839 -24.741085 -3.469573 -0.228812 -1.655352 8.646781 -7.125000 0.000000 0.000000 63.297468 3.537556 26.750605 -27.477180 35.452430 -10.664929 0.518201 -0.304683 8.491933 7.125000 0.000000 0.000000 
1.067485 17.903898 -4.857583 4.083869 -43.917113 4.276080 -16.977629 -5.006356 -19.959729 0.445258 8.392242 25.505967 -1.345329 6.772209 -0.918223 0.106000 -2.099400 -5.780500 9.039219 15.988522 -10.512631 -1.562365 -9.188786 28.584819 -1.948170 8.135614 -4.258737 -0.004600 0.436700 -1.199900 0.423994 0.383777 -0.931575 4.364843 0.635667 -0.404591 5.276662 -6.453558 -11.396038 4.048700 -3.141700 3.163400 -75.376057 0.984758 17.018804 12.990731 -24.914005 -3.530263 -0.195805 -1.671292 8.020042 -7.125000 0.000000 0.000000 62.338831 4.075261 26.895442 -28.881048 36.671799 -11.615849 0.514880 -0.279418 8.321174 7.125000 0.000000 0.000000 
1.080910 17.901779 -4.816402 4.228075 -44.302664 4.086657 -17.245506 -4.831926 -19.828202 0.457767 8.400114 25.564700 -1.370568 6.875992 -1.199444 0.094400 -1.981900 -5.455600 8.780846 15.981028 -10.493946 -1.581504 -9.222924 28.672715 -2.001544 8.522211 -3.996728 -0.000400 0.125900 -0.345900 0.380692 0.373475 -0.971164 4.373670 0.632842 -0.438846 5.074393 -6.659253 -12.425988 3.994200 -3.235100 2.832700 -75.184453 1.158038 17.046948 12.995406 -24.947559 -3.542769 -0.194360 -1.666298 8.026173 -7.125000 0.000000 0.000000 61.201866 4.484040 27.123450 -30.398611 37.934575 -12.676739 0.514429 -0.253088 8.196754 7.125000 0.000000 0.000000 
1.094031 17.900467 -4.777744 4.167802 -44.670248 4.063491 -17.342844 -4.704486 -19.763173 0.476869 8.425074 25.653451 -1.423022 7.085000 -1.433683 0.095600 -1.994400 -5.490100 8.705759 16.104175 -10.468705 -1.602668 -9.256753 28.776382 -2.016403 8.637834 -3.934650 -0.000000 -0.022700 0.062300 0.380073 0.329917 -1.011929 4.385912 0.613419 -0.453113 4.907941 -6.870112 -13.609110 3.958200 -3.326800 2.453000 -75.004560 1.310604 17.006525 12.969294 -24.935540 -3.536021 -0.225956 -1.649657 8.285347 -7.125000 0.000000 0.000000 60.062432 5.034914 27.266594 -31.991094 39.183204 -13.818883 0.509844 -0.230707 8.318269 7.125000 0.000000 0.000000 
1.112099 17.898448 -4.750593 3.955363 -44.818610 4.167505 -17.291234 -4.684168 -19.783976 0.499954 8.463105 25.765706 -1.459853 7.228319 -1.518326 0.115500 -2.190800 -6.033300 8.789240 16.128957 -10.522446 -1.622150 -9.286814 28.881701 -1.989034 8.510895 -3.894799 -0.001000 0.209200 -0.574900 0.409575 0.196344 -1.087999 4.405814 0.556349 -0.604620 4.725570 -7.081933 -14.987478 3.918000 -3.417300 1.997300 -74.830105 1.402796 16.823741 12.924167 -24.888807 -3.519629 -0.248318 -1.637933 8.563455 -7.125000 0.000000 0.000000 58.822447 5.599600 27.362803 -33.707608 40.452916 -15.084924 0.505102 -0.219030 8.358861 7.125000 0.000000 0.000000 
